<svg xmlns="http://www.w3.org/2000/svg" xmlns:xlink="http://www.w3.org/1999/xlink" width="229" zoomAndPan="magnify" viewBox="0 0 171.75 50.999998" height="68" preserveAspectRatio="xMidYMid meet" version="1.0"><defs><g/><clipPath id="id1"><path d="M 0 0.0351562 L 31 0.0351562 L 31 30 L 0 30 Z M 0 0.0351562 " clip-rule="nonzero"/></clipPath><clipPath id="id2"><path d="M 13 22 L 36.9375 22 L 36.9375 50.285156 L 13 50.285156 Z M 13 22 " clip-rule="nonzero"/></clipPath></defs><g clip-path="url(#id1)"><path fill="#231f20" d="M 17.464844 17.722656 C 17.472656 17.816406 17.480469 17.910156 17.488281 18.007812 C 17.742188 22.039062 15.464844 25.644531 12.03125 27.257812 L 13.140625 29.328125 C 15.691406 24.285156 20.90625 20.820312 26.910156 20.820312 C 27.226562 20.820312 27.539062 20.832031 27.851562 20.851562 L 26.878906 19.039062 C 30.535156 16.804688 31.847656 12.0625 29.792969 8.234375 C 28.261719 5.386719 25.285156 3.828125 22.269531 3.976562 C 21.484375 4.101562 20.703125 4.34375 19.949219 4.710938 C 18.601562 5.363281 17.507812 6.339844 16.710938 7.496094 C 17.519531 6.023438 18.773438 4.777344 20.394531 3.988281 C 20.445312 3.964844 20.496094 3.941406 20.542969 3.917969 C 18.6875 0.550781 14.476562 -0.695312 11.09375 1.136719 C 8.40625 2.59375 7.050781 5.5625 7.5 8.433594 C 9.386719 11.84375 13.613281 13.136719 17.066406 11.382812 C 17.007812 11.414062 16.953125 11.449219 16.898438 11.480469 C 13.546875 13.296875 9.398438 12.175781 7.386719 8.996094 C 6.507812 9.171875 5.644531 9.480469 4.816406 9.925781 C 0.351562 12.347656 -1.3125 17.945312 1.09375 22.433594 C 3.050781 26.074219 7.089844 27.859375 10.925781 27.109375 C 14.859375 25.820312 17.609375 22.039062 17.464844 17.722656 " fill-opacity="1" fill-rule="nonzero"/></g><g clip-path="url(#id2)"><path fill="#231f20" d="M 34.242188 44.382812 C 32.269531 46.195312 29.628906 47.289062 26.734375 47.242188 C 20.890625 47.152344 16.128906 42.355469 16.046875 36.484375 C 15.960938 30.382812 20.859375 25.410156 26.910156 25.410156 C 29.734375 25.410156 32.308594 26.496094 34.242188 28.273438 C 34.839844 28.824219 35.757812 28.816406 36.332031 28.242188 L 36.335938 28.238281 C 36.9375 27.632812 36.921875 26.644531 36.300781 26.066406 C 33.726562 23.6875 30.253906 22.273438 26.453125 22.394531 C 19.214844 22.628906 13.328125 28.5 13.046875 35.773438 C 12.742188 43.722656 19.066406 50.269531 26.910156 50.269531 C 30.53125 50.269531 33.828125 48.871094 36.300781 46.589844 C 36.921875 46.011719 36.9375 45.023438 36.335938 44.417969 L 36.332031 44.414062 C 35.757812 43.839844 34.839844 43.832031 34.242188 44.382812 " fill-opacity="1" fill-rule="nonzero"/></g><g fill="#000000" fill-opacity="1"><g transform="translate(19.450818, 39.489165)"><g><path d="M 3.929688 0.113281 C 6.269531 0.113281 7.425781 -1.617188 7.425781 -3.34375 C 7.425781 -5.074219 6.269531 -6.804688 3.929688 -6.804688 C 1.585938 -6.804688 0.429688 -5.074219 0.429688 -3.34375 C 0.429688 -1.617188 1.585938 0.113281 3.929688 0.113281 Z M 3.929688 -0.648438 C 2.113281 -0.648438 1.242188 -1.96875 1.242188 -3.34375 C 1.242188 -4.722656 2.113281 -6.039062 3.929688 -6.039062 C 5.746094 -6.039062 6.613281 -4.722656 6.613281 -3.34375 C 6.613281 -1.96875 5.746094 -0.648438 3.929688 -0.648438 Z M 3.929688 -0.648438 "/></g></g></g><g fill="#000000" fill-opacity="1"><g transform="translate(29.216558, 39.489165)"><g><path d="M 3.929688 0.113281 C 6.269531 0.113281 7.425781 -1.617188 7.425781 -3.34375 C 7.425781 -5.074219 6.269531 -6.804688 3.929688 -6.804688 C 1.585938 -6.804688 0.429688 -5.074219 0.429688 -3.34375 C 0.429688 -1.617188 1.585938 0.113281 3.929688 0.113281 Z M 3.929688 -0.648438 C 2.113281 -0.648438 1.242188 -1.96875 1.242188 -3.34375 C 1.242188 -4.722656 2.113281 -6.039062 3.929688 -6.039062 C 5.746094 -6.039062 6.613281 -4.722656 6.613281 -3.34375 C 6.613281 -1.96875 5.746094 -0.648438 3.929688 -0.648438 Z M 3.929688 -0.648438 "/></g></g></g><g fill="#000000" fill-opacity="1"><g transform="translate(38.982299, 39.489165)"><g><path d="M 0.878906 0 L 1.683594 0 L 1.683594 -3.03125 L 2.847656 -3.03125 L 5.417969 0 L 6.335938 0 L 3.507812 -3.46875 L 6.136719 -6.691406 L 5.21875 -6.691406 L 2.820312 -3.785156 L 1.683594 -3.785156 L 1.683594 -6.691406 L 0.878906 -6.691406 Z M 0.878906 0 "/></g></g></g><g fill="#000000" fill-opacity="1"><g transform="translate(47.248002, 39.489165)"><g><path d="M 0.878906 0 L 1.683594 0 L 1.683594 -6.691406 L 0.878906 -6.691406 Z M 0.878906 0 "/></g></g></g><g fill="#000000" fill-opacity="1"><g transform="translate(51.720622, 39.489165)"><g><path d="M 0.878906 0 L 1.683594 0 L 1.683594 -5.351562 L 5.707031 0 L 6.453125 0 L 6.453125 -6.691406 L 5.648438 -6.691406 L 5.648438 -1.347656 L 1.625 -6.691406 L 0.878906 -6.691406 Z M 0.878906 0 "/></g></g></g><g fill="#000000" fill-opacity="1"><g transform="translate(60.960872, 39.489165)"><g><path d="M 4.070312 0.113281 C 4.796875 0.113281 5.542969 -0.046875 6.164062 -0.335938 L 6.164062 -3.554688 L 5.363281 -3.554688 L 5.363281 -0.898438 C 5.027344 -0.734375 4.578125 -0.648438 4.128906 -0.648438 C 2.722656 -0.648438 1.253906 -1.328125 1.253906 -3.34375 C 1.253906 -5.257812 2.703125 -6.039062 4.109375 -6.039062 C 4.808594 -6.039062 5.488281 -5.878906 6.003906 -5.554688 L 6.003906 -6.355469 C 5.410156 -6.652344 4.703125 -6.804688 3.996094 -6.804688 C 2.21875 -6.804688 0.441406 -5.648438 0.441406 -3.34375 C 0.441406 -0.820312 2.238281 0.113281 4.070312 0.113281 Z M 4.070312 0.113281 "/></g></g></g><g fill="#000000" fill-opacity="1"><g transform="translate(41.54721, 28.409388)"><g><path d="M -1.125 -1.03125 C -1.125 -0.945312 -1.15625 -0.875 -1.21875 -0.8125 C -1.289062 -0.757812 -1.378906 -0.734375 -1.484375 -0.734375 C -1.597656 -0.734375 -1.6875 -0.75 -1.75 -0.78125 L -1.75 -0.75 C -1.75 -0.570312 -1.660156 -0.425781 -1.484375 -0.3125 C -1.316406 -0.195312 -1.117188 -0.140625 -0.890625 -0.140625 C -0.347656 -0.140625 0.171875 -0.332031 0.671875 -0.71875 C 1.046875 -0.988281 1.429688 -1.351562 1.828125 -1.8125 L 2.953125 -3.15625 C 2.835938 -3.125 2.726562 -3.09375 2.625 -3.0625 L 2.3125 -2.953125 C 1.175781 -2.566406 0.421875 -2.085938 0.046875 -1.515625 C 0.0351562 -1.472656 0.0195312 -1.453125 0 -1.453125 C -0.03125 -1.453125 -0.0390625 -1.460938 -0.03125 -1.484375 C -0.03125 -1.503906 -0.03125 -1.519531 -0.03125 -1.53125 C -0.03125 -1.550781 -0.015625 -1.597656 0.015625 -1.671875 C 0.0546875 -1.742188 0.128906 -1.832031 0.234375 -1.9375 C 0.347656 -2.039062 0.472656 -2.144531 0.609375 -2.25 C 1.046875 -2.570312 1.46875 -2.804688 1.875 -2.953125 C 2.289062 -3.097656 2.703125 -3.234375 3.109375 -3.359375 C 3.359375 -3.691406 3.597656 -4.003906 3.828125 -4.296875 C 4.421875 -5.015625 4.816406 -5.484375 5.015625 -5.703125 C 5.015625 -5.703125 5.179688 -5.875 5.515625 -6.21875 C 4.804688 -5.78125 4.234375 -5.5625 3.796875 -5.5625 C 3.585938 -5.5625 3.414062 -5.609375 3.28125 -5.703125 C 3.144531 -5.804688 3.078125 -5.929688 3.078125 -6.078125 C 3.078125 -6.234375 3.085938 -6.359375 3.109375 -6.453125 C 3.140625 -6.546875 3.1875 -6.644531 3.25 -6.75 C 3.375 -6.957031 3.597656 -7.1875 3.921875 -7.4375 C 4.117188 -7.601562 4.222656 -7.707031 4.234375 -7.75 C 4.253906 -7.789062 4.265625 -7.820312 4.265625 -7.84375 C 4.265625 -7.96875 4.203125 -8.066406 4.078125 -8.140625 C 3.953125 -8.210938 3.742188 -8.25 3.453125 -8.25 C 2.816406 -8.25 2.257812 -8.03125 1.78125 -7.59375 C 1.71875 -7.539062 1.664062 -7.515625 1.625 -7.515625 C 1.582031 -7.515625 1.5625 -7.523438 1.5625 -7.546875 C 1.5625 -7.585938 1.597656 -7.644531 1.671875 -7.71875 C 2.171875 -8.15625 2.773438 -8.375 3.484375 -8.375 C 3.816406 -8.375 4.070312 -8.3125 4.25 -8.1875 C 4.4375 -8.070312 4.53125 -7.90625 4.53125 -7.6875 C 4.53125 -7.445312 4.484375 -7.25 4.390625 -7.09375 C 4.210938 -6.820312 3.953125 -6.570312 3.609375 -6.34375 C 3.472656 -6.269531 3.390625 -6.210938 3.359375 -6.171875 C 3.328125 -6.128906 3.3125 -6.082031 3.3125 -6.03125 C 3.3125 -5.988281 3.316406 -5.953125 3.328125 -5.921875 C 3.347656 -5.890625 3.378906 -5.859375 3.421875 -5.828125 C 3.523438 -5.753906 3.65625 -5.71875 3.8125 -5.71875 C 3.976562 -5.71875 4.144531 -5.742188 4.3125 -5.796875 C 4.476562 -5.847656 4.648438 -5.914062 4.828125 -6 C 5.234375 -6.207031 5.597656 -6.453125 5.921875 -6.734375 C 6.835938 -7.535156 7.382812 -7.992188 7.5625 -8.109375 C 7.75 -8.234375 7.882812 -8.316406 7.96875 -8.359375 L 8.140625 -8.4375 C 8.171875 -8.457031 8.207031 -8.46875 8.25 -8.46875 C 8.289062 -8.46875 8.3125 -8.457031 8.3125 -8.4375 C 8.3125 -8.414062 8.300781 -8.398438 8.28125 -8.390625 C 8.257812 -8.378906 8.234375 -8.363281 8.203125 -8.34375 C 8.171875 -8.332031 8.144531 -8.316406 8.125 -8.296875 C 8.101562 -8.285156 8.078125 -8.269531 8.046875 -8.25 L 7.734375 -8.03125 C 7.359375 -7.71875 6.988281 -7.332031 6.625 -6.875 L 5.671875 -5.65625 L 4.828125 -4.484375 L 4.15625 -3.640625 L 6.5 -4.21875 L 6.796875 -4.59375 C 7.679688 -5.625 8.671875 -6.539062 9.765625 -7.34375 C 10.828125 -8.125 11.609375 -8.515625 12.109375 -8.515625 C 12.285156 -8.515625 12.421875 -8.472656 12.515625 -8.390625 C 12.609375 -8.304688 12.65625 -8.203125 12.65625 -8.078125 C 12.65625 -7.953125 12.597656 -7.796875 12.484375 -7.609375 C 12.378906 -7.421875 12.21875 -7.21875 12 -7 C 11.789062 -6.78125 11.53125 -6.550781 11.21875 -6.3125 C 10.914062 -6.070312 10.570312 -5.832031 10.1875 -5.59375 C 9.3125 -5.070312 8.382812 -4.65625 7.40625 -4.34375 C 6.363281 -3.082031 5.664062 -2.0625 5.3125 -1.28125 C 5.195312 -1.03125 5.140625 -0.820312 5.140625 -0.65625 C 5.140625 -0.488281 5.175781 -0.359375 5.25 -0.265625 C 5.320312 -0.179688 5.457031 -0.140625 5.65625 -0.140625 C 5.863281 -0.140625 6.085938 -0.203125 6.328125 -0.328125 C 6.578125 -0.460938 6.816406 -0.648438 7.046875 -0.890625 C 7.546875 -1.429688 7.914062 -2.101562 8.15625 -2.90625 C 8.195312 -3.019531 8.242188 -3.078125 8.296875 -3.078125 C 8.328125 -3.078125 8.347656 -3.007812 8.359375 -2.875 C 8.378906 -2.75 8.351562 -2.582031 8.28125 -2.375 C 8.21875 -2.175781 8.125 -1.96875 8 -1.75 C 7.875 -1.539062 7.722656 -1.328125 7.546875 -1.109375 C 7.367188 -0.898438 7.175781 -0.710938 6.96875 -0.546875 C 6.5 -0.171875 6.039062 0.015625 5.59375 0.015625 C 5.226562 0.015625 4.988281 -0.148438 4.875 -0.484375 C 4.832031 -0.578125 4.8125 -0.695312 4.8125 -0.84375 C 4.8125 -0.988281 4.832031 -1.171875 4.875 -1.390625 C 4.925781 -1.617188 5.015625 -1.863281 5.140625 -2.125 C 5.390625 -2.695312 5.789062 -3.332031 6.34375 -4.03125 C 5.976562 -3.925781 5.59375 -3.828125 5.1875 -3.734375 L 3.984375 -3.4375 L 3.09375 -2.40625 C 2.519531 -1.769531 2.050781 -1.3125 1.6875 -1.03125 C 1.332031 -0.757812 1.03125 -0.550781 0.78125 -0.40625 C 0.28125 -0.125 -0.257812 0.015625 -0.84375 0.015625 C -1.15625 0.015625 -1.425781 -0.0625 -1.65625 -0.21875 C -1.875 -0.375 -1.984375 -0.566406 -1.984375 -0.796875 C -1.984375 -1.046875 -1.863281 -1.203125 -1.625 -1.265625 C -1.550781 -1.285156 -1.484375 -1.296875 -1.421875 -1.296875 C -1.222656 -1.296875 -1.125 -1.207031 -1.125 -1.03125 Z M 7.59375 -4.546875 C 8.875 -5.046875 10.019531 -5.703125 11.03125 -6.515625 C 11.625 -6.992188 12.035156 -7.410156 12.265625 -7.765625 C 12.378906 -7.941406 12.4375 -8.082031 12.4375 -8.1875 C 12.4375 -8.320312 12.347656 -8.390625 12.171875 -8.390625 C 12.003906 -8.390625 11.8125 -8.335938 11.59375 -8.234375 C 11.382812 -8.140625 11.15625 -8.003906 10.90625 -7.828125 C 10.664062 -7.648438 10.40625 -7.4375 10.125 -7.1875 C 9.851562 -6.945312 9.570312 -6.6875 9.28125 -6.40625 C 9 -6.125 8.710938 -5.828125 8.421875 -5.515625 Z M 7.59375 -4.546875 "/></g></g></g><g fill="#000000" fill-opacity="1"><g transform="translate(51.123759, 28.409388)"><g><path d="M 2.71875 -0.96875 C 2.570312 -0.96875 2.460938 -1.03125 2.390625 -1.15625 C 1.910156 -0.613281 1.394531 -0.253906 0.84375 -0.078125 C 0.65625 -0.015625 0.472656 0.015625 0.296875 0.015625 C 0.117188 0.015625 -0.03125 -0.00390625 -0.15625 -0.046875 C -0.28125 -0.0859375 -0.378906 -0.144531 -0.453125 -0.21875 C -0.785156 -0.5 -0.820312 -0.984375 -0.5625 -1.671875 C -0.457031 -1.941406 -0.320312 -2.191406 -0.15625 -2.421875 C 0 -2.660156 0.175781 -2.878906 0.375 -3.078125 C 0.570312 -3.273438 0.785156 -3.453125 1.015625 -3.609375 C 1.535156 -3.960938 2.039062 -4.140625 2.53125 -4.140625 C 2.75 -4.140625 2.9375 -4.082031 3.09375 -3.96875 C 3.25 -3.863281 3.332031 -3.707031 3.34375 -3.5 C 3.351562 -3.289062 3.335938 -3.09375 3.296875 -2.90625 C 3.265625 -2.726562 3.210938 -2.550781 3.140625 -2.375 C 2.992188 -2 2.789062 -1.644531 2.53125 -1.3125 C 2.550781 -1.195312 2.625 -1.140625 2.75 -1.140625 C 2.882812 -1.140625 3.007812 -1.164062 3.125 -1.21875 C 3.238281 -1.28125 3.351562 -1.351562 3.46875 -1.4375 C 3.582031 -1.53125 3.691406 -1.628906 3.796875 -1.734375 C 3.910156 -1.835938 4.015625 -1.941406 4.109375 -2.046875 L 4.34375 -2.296875 C 4.40625 -2.367188 4.453125 -2.421875 4.484375 -2.453125 L 4.609375 -2.34375 C 4.554688 -2.300781 4.488281 -2.234375 4.40625 -2.140625 C 4.332031 -2.054688 4.242188 -1.960938 4.140625 -1.859375 C 4.140625 -1.859375 4.03125 -1.753906 3.8125 -1.546875 C 3.40625 -1.160156 3.039062 -0.96875 2.71875 -0.96875 Z M 0.21875 -0.21875 C 0.28125 -0.1875 0.367188 -0.171875 0.484375 -0.171875 C 0.742188 -0.171875 1.082031 -0.316406 1.5 -0.609375 C 1.8125 -0.835938 2.085938 -1.097656 2.328125 -1.390625 L 2.328125 -1.40625 C 2.328125 -1.75 2.457031 -2.007812 2.71875 -2.1875 C 2.789062 -2.238281 2.851562 -2.273438 2.90625 -2.296875 C 3.101562 -2.703125 3.195312 -3.035156 3.1875 -3.296875 C 3.15625 -3.710938 3 -3.921875 2.71875 -3.921875 C 2.25 -3.921875 1.582031 -3.382812 0.71875 -2.3125 C 0.164062 -1.625 -0.0859375 -1.082031 -0.046875 -0.6875 C -0.046875 -0.46875 0.0390625 -0.3125 0.21875 -0.21875 Z M 0.21875 -0.21875 "/></g></g></g><g fill="#000000" fill-opacity="1"><g transform="translate(55.555781, 28.409388)"><g><path d="M 0.21875 -0.109375 C 0.125 -0.128906 0.00390625 -0.140625 -0.140625 -0.140625 C -0.378906 -0.140625 -0.566406 -0.117188 -0.703125 -0.078125 L 1.390625 -3.078125 C 1.648438 -3.441406 1.785156 -3.660156 1.796875 -3.734375 C 1.804688 -3.867188 1.765625 -3.9375 1.671875 -3.9375 C 1.515625 -3.9375 1.144531 -3.566406 0.5625 -2.828125 L 0.171875 -2.34375 C 0.140625 -2.332031 0.101562 -2.34375 0.0625 -2.375 C 0.03125 -2.40625 0.0234375 -2.429688 0.046875 -2.453125 C 0.160156 -2.578125 0.289062 -2.734375 0.4375 -2.921875 C 0.582031 -3.117188 0.738281 -3.304688 0.90625 -3.484375 C 1.300781 -3.921875 1.628906 -4.140625 1.890625 -4.140625 C 2.328125 -4.140625 2.46875 -3.910156 2.3125 -3.453125 C 2.28125 -3.359375 2.207031 -3.234375 2.09375 -3.078125 L 0.828125 -1.3125 L 0.859375 -1.25 C 1.941406 -2.5 2.738281 -3.3125 3.25 -3.6875 C 3.644531 -3.988281 4.015625 -4.140625 4.359375 -4.140625 C 4.597656 -4.140625 4.785156 -4.078125 4.921875 -3.953125 C 5.023438 -3.835938 5.070312 -3.71875 5.0625 -3.59375 C 5.0625 -3.476562 5.054688 -3.390625 5.046875 -3.328125 C 5.035156 -3.265625 5.019531 -3.203125 5 -3.140625 C 4.957031 -3.003906 4.875 -2.84375 4.75 -2.65625 C 5.613281 -3.53125 6.265625 -4.015625 6.703125 -4.109375 C 6.796875 -4.128906 6.894531 -4.140625 7 -4.140625 C 7.101562 -4.140625 7.203125 -4.117188 7.296875 -4.078125 C 7.390625 -4.046875 7.460938 -4.003906 7.515625 -3.953125 C 7.617188 -3.835938 7.671875 -3.707031 7.671875 -3.5625 C 7.671875 -3.414062 7.640625 -3.265625 7.578125 -3.109375 C 7.523438 -2.960938 7.4375 -2.785156 7.3125 -2.578125 C 7.039062 -2.140625 6.585938 -1.578125 5.953125 -0.890625 C 5.679688 -0.609375 5.539062 -0.441406 5.53125 -0.390625 C 5.519531 -0.347656 5.515625 -0.316406 5.515625 -0.296875 L 5.46875 -0.296875 C 5.46875 -0.191406 5.582031 -0.140625 5.8125 -0.140625 C 6.039062 -0.140625 6.25 -0.191406 6.4375 -0.296875 C 6.632812 -0.398438 6.832031 -0.53125 7.03125 -0.6875 C 7.226562 -0.851562 7.421875 -1.03125 7.609375 -1.21875 C 7.796875 -1.40625 7.960938 -1.582031 8.109375 -1.75 L 8.5 -2.203125 C 8.601562 -2.328125 8.675781 -2.410156 8.71875 -2.453125 L 8.84375 -2.34375 C 8.800781 -2.3125 8.722656 -2.226562 8.609375 -2.09375 C 8.503906 -1.957031 8.367188 -1.800781 8.203125 -1.625 C 8.046875 -1.445312 7.867188 -1.257812 7.671875 -1.0625 C 7.472656 -0.875 7.269531 -0.695312 7.0625 -0.53125 C 6.570312 -0.15625 6.164062 0.03125 5.84375 0.03125 C 5.488281 0.03125 5.238281 -0.0625 5.09375 -0.25 C 5.050781 -0.300781 5.03125 -0.363281 5.03125 -0.4375 C 5.03125 -0.519531 5.039062 -0.609375 5.0625 -0.703125 C 5.09375 -0.804688 5.15625 -0.9375 5.25 -1.09375 C 5.425781 -1.40625 5.691406 -1.757812 6.046875 -2.15625 C 6.410156 -2.5625 6.644531 -2.832031 6.75 -2.96875 C 6.851562 -3.101562 6.941406 -3.222656 7.015625 -3.328125 C 7.140625 -3.523438 7.203125 -3.671875 7.203125 -3.765625 C 7.203125 -3.910156 7.097656 -3.984375 6.890625 -3.984375 C 6.484375 -3.984375 5.785156 -3.484375 4.796875 -2.484375 C 4.367188 -2.054688 3.898438 -1.515625 3.390625 -0.859375 L 2.828125 -0.109375 C 2.734375 -0.128906 2.613281 -0.140625 2.46875 -0.140625 C 2.238281 -0.140625 2.050781 -0.117188 1.90625 -0.078125 C 2.5 -0.804688 2.828125 -1.210938 2.890625 -1.296875 C 3.796875 -2.492188 4.296875 -3.171875 4.390625 -3.328125 C 4.523438 -3.554688 4.59375 -3.710938 4.59375 -3.796875 C 4.59375 -3.921875 4.492188 -3.984375 4.296875 -3.984375 C 4.035156 -3.984375 3.726562 -3.84375 3.375 -3.5625 C 2.632812 -2.976562 1.769531 -2.078125 0.78125 -0.859375 Z M 0.21875 -0.109375 "/></g></g></g><g fill="#000000" fill-opacity="1"><g transform="translate(64.220569, 28.409388)"><g><path d="M 2.328125 -0.515625 C 2.078125 -0.359375 1.800781 -0.226562 1.5 -0.125 C 1.207031 -0.0195312 0.925781 0.03125 0.65625 0.03125 C 0.394531 0.03125 0.191406 0.00390625 0.046875 -0.046875 C -0.0859375 -0.0976562 -0.195312 -0.171875 -0.28125 -0.265625 C -0.664062 -0.679688 -0.664062 -1.289062 -0.28125 -2.09375 C -0.113281 -2.445312 0.132812 -2.769531 0.46875 -3.0625 C 0.800781 -3.351562 1.097656 -3.570312 1.359375 -3.71875 C 1.847656 -4 2.304688 -4.140625 2.734375 -4.140625 C 3.160156 -4.140625 3.382812 -4.003906 3.40625 -3.734375 C 3.4375 -3.304688 2.914062 -2.835938 1.84375 -2.328125 C 1.445312 -2.140625 0.945312 -1.953125 0.34375 -1.765625 C 0.101562 -1.367188 -0.015625 -1.050781 -0.015625 -0.8125 C -0.015625 -0.570312 0.046875 -0.398438 0.171875 -0.296875 C 0.304688 -0.191406 0.492188 -0.140625 0.734375 -0.140625 C 0.972656 -0.140625 1.234375 -0.191406 1.515625 -0.296875 C 1.804688 -0.398438 2.070312 -0.53125 2.3125 -0.6875 C 2.5625 -0.851562 2.785156 -1.03125 2.984375 -1.21875 C 3.191406 -1.40625 3.375 -1.585938 3.53125 -1.765625 C 3.6875 -1.941406 3.8125 -2.09375 3.90625 -2.21875 C 4.007812 -2.34375 4.078125 -2.421875 4.109375 -2.453125 L 4.234375 -2.34375 C 4.179688 -2.300781 4.101562 -2.210938 4 -2.078125 C 3.894531 -1.941406 3.757812 -1.785156 3.59375 -1.609375 C 3.4375 -1.429688 3.25 -1.242188 3.03125 -1.046875 C 2.820312 -0.859375 2.585938 -0.679688 2.328125 -0.515625 Z M 0.484375 -1.96875 C 1.703125 -2.394531 2.484375 -2.820312 2.828125 -3.25 C 2.953125 -3.382812 3.015625 -3.519531 3.015625 -3.65625 C 3.015625 -3.882812 2.90625 -4 2.6875 -4 C 2.320312 -4 1.863281 -3.671875 1.3125 -3.015625 C 0.914062 -2.566406 0.640625 -2.21875 0.484375 -1.96875 Z M 0.484375 -1.96875 "/></g></g></g><g fill="#000000" fill-opacity="1"><g transform="translate(68.2903, 28.409388)"><g><path d="M 0.21875 -0.109375 C 0.125 -0.128906 0.00390625 -0.140625 -0.140625 -0.140625 C -0.378906 -0.140625 -0.566406 -0.117188 -0.703125 -0.078125 L 1.390625 -3.078125 C 1.648438 -3.441406 1.785156 -3.660156 1.796875 -3.734375 C 1.804688 -3.867188 1.765625 -3.9375 1.671875 -3.9375 C 1.515625 -3.9375 1.144531 -3.566406 0.5625 -2.828125 L 0.171875 -2.34375 C 0.140625 -2.332031 0.101562 -2.34375 0.0625 -2.375 C 0.03125 -2.40625 0.0234375 -2.429688 0.046875 -2.453125 C 0.160156 -2.578125 0.289062 -2.734375 0.4375 -2.921875 C 0.582031 -3.117188 0.738281 -3.304688 0.90625 -3.484375 C 1.300781 -3.921875 1.628906 -4.140625 1.890625 -4.140625 C 2.328125 -4.140625 2.46875 -3.910156 2.3125 -3.453125 C 2.28125 -3.359375 2.207031 -3.234375 2.09375 -3.078125 L 0.828125 -1.3125 L 0.859375 -1.25 C 1.941406 -2.5 2.738281 -3.3125 3.25 -3.6875 C 3.644531 -3.988281 4.015625 -4.140625 4.359375 -4.140625 C 4.597656 -4.140625 4.785156 -4.078125 4.921875 -3.953125 C 5.023438 -3.835938 5.070312 -3.71875 5.0625 -3.59375 C 5.0625 -3.476562 5.054688 -3.390625 5.046875 -3.328125 C 5.035156 -3.265625 5.019531 -3.203125 5 -3.140625 C 4.957031 -3.003906 4.875 -2.84375 4.75 -2.65625 C 5.613281 -3.53125 6.265625 -4.015625 6.703125 -4.109375 C 6.796875 -4.128906 6.894531 -4.140625 7 -4.140625 C 7.101562 -4.140625 7.203125 -4.117188 7.296875 -4.078125 C 7.390625 -4.046875 7.460938 -4.003906 7.515625 -3.953125 C 7.617188 -3.835938 7.671875 -3.707031 7.671875 -3.5625 C 7.671875 -3.414062 7.640625 -3.265625 7.578125 -3.109375 C 7.523438 -2.960938 7.4375 -2.785156 7.3125 -2.578125 C 7.039062 -2.140625 6.585938 -1.578125 5.953125 -0.890625 C 5.679688 -0.609375 5.539062 -0.441406 5.53125 -0.390625 C 5.519531 -0.347656 5.515625 -0.316406 5.515625 -0.296875 L 5.46875 -0.296875 C 5.46875 -0.191406 5.582031 -0.140625 5.8125 -0.140625 C 6.039062 -0.140625 6.25 -0.191406 6.4375 -0.296875 C 6.632812 -0.398438 6.832031 -0.53125 7.03125 -0.6875 C 7.226562 -0.851562 7.421875 -1.03125 7.609375 -1.21875 C 7.796875 -1.40625 7.960938 -1.582031 8.109375 -1.75 L 8.5 -2.203125 C 8.601562 -2.328125 8.675781 -2.410156 8.71875 -2.453125 L 8.84375 -2.34375 C 8.800781 -2.3125 8.722656 -2.226562 8.609375 -2.09375 C 8.503906 -1.957031 8.367188 -1.800781 8.203125 -1.625 C 8.046875 -1.445312 7.867188 -1.257812 7.671875 -1.0625 C 7.472656 -0.875 7.269531 -0.695312 7.0625 -0.53125 C 6.570312 -0.15625 6.164062 0.03125 5.84375 0.03125 C 5.488281 0.03125 5.238281 -0.0625 5.09375 -0.25 C 5.050781 -0.300781 5.03125 -0.363281 5.03125 -0.4375 C 5.03125 -0.519531 5.039062 -0.609375 5.0625 -0.703125 C 5.09375 -0.804688 5.15625 -0.9375 5.25 -1.09375 C 5.425781 -1.40625 5.691406 -1.757812 6.046875 -2.15625 C 6.410156 -2.5625 6.644531 -2.832031 6.75 -2.96875 C 6.851562 -3.101562 6.941406 -3.222656 7.015625 -3.328125 C 7.140625 -3.523438 7.203125 -3.671875 7.203125 -3.765625 C 7.203125 -3.910156 7.097656 -3.984375 6.890625 -3.984375 C 6.484375 -3.984375 5.785156 -3.484375 4.796875 -2.484375 C 4.367188 -2.054688 3.898438 -1.515625 3.390625 -0.859375 L 2.828125 -0.109375 C 2.734375 -0.128906 2.613281 -0.140625 2.46875 -0.140625 C 2.238281 -0.140625 2.050781 -0.117188 1.90625 -0.078125 C 2.5 -0.804688 2.828125 -1.210938 2.890625 -1.296875 C 3.796875 -2.492188 4.296875 -3.171875 4.390625 -3.328125 C 4.523438 -3.554688 4.59375 -3.710938 4.59375 -3.796875 C 4.59375 -3.921875 4.492188 -3.984375 4.296875 -3.984375 C 4.035156 -3.984375 3.726562 -3.84375 3.375 -3.5625 C 2.632812 -2.976562 1.769531 -2.078125 0.78125 -0.859375 Z M 0.21875 -0.109375 "/></g></g></g><g fill="#000000" fill-opacity="1"><g transform="translate(76.955088, 28.409388)"><g><path d="M 2.40625 0.015625 C 2.007812 0.015625 1.8125 -0.109375 1.8125 -0.359375 C 1.8125 -0.566406 1.925781 -0.828125 2.15625 -1.140625 L 2.53125 -1.625 L 2.484375 -1.640625 C 1.804688 -0.804688 1.164062 -0.285156 0.5625 -0.078125 C 0.394531 -0.015625 0.253906 0.015625 0.140625 0.015625 C -0.359375 0.015625 -0.609375 -0.25 -0.609375 -0.78125 C -0.609375 -1.394531 -0.359375 -1.988281 0.140625 -2.5625 C 0.867188 -3.414062 1.601562 -3.921875 2.34375 -4.078125 C 2.5625 -4.117188 2.75 -4.140625 2.90625 -4.140625 C 3.0625 -4.140625 3.1875 -4.128906 3.28125 -4.109375 C 3.375 -4.085938 3.453125 -4.054688 3.515625 -4.015625 C 3.660156 -3.921875 3.734375 -3.804688 3.734375 -3.671875 C 3.734375 -3.535156 3.710938 -3.40625 3.671875 -3.28125 L 4.265625 -4.015625 C 4.367188 -3.984375 4.46875 -3.96875 4.5625 -3.96875 C 4.800781 -3.96875 4.972656 -3.976562 5.078125 -4 L 3.046875 -1.546875 C 2.554688 -0.972656 2.3125 -0.570312 2.3125 -0.34375 C 2.3125 -0.21875 2.390625 -0.15625 2.546875 -0.15625 C 2.703125 -0.15625 2.878906 -0.203125 3.078125 -0.296875 C 3.273438 -0.390625 3.472656 -0.507812 3.671875 -0.65625 C 3.867188 -0.800781 4.0625 -0.960938 4.25 -1.140625 C 4.4375 -1.316406 4.609375 -1.488281 4.765625 -1.65625 C 4.921875 -1.820312 5.0625 -1.976562 5.1875 -2.125 L 5.46875 -2.453125 L 5.59375 -2.34375 L 5.296875 -2 C 4.128906 -0.65625 3.164062 0.015625 2.40625 0.015625 Z M 0.734375 -2.15625 C 0.171875 -1.46875 -0.109375 -0.90625 -0.109375 -0.46875 C -0.109375 -0.269531 -0.0195312 -0.171875 0.15625 -0.171875 C 0.75 -0.171875 1.597656 -0.820312 2.703125 -2.125 L 3.203125 -2.734375 C 3.453125 -3.097656 3.578125 -3.363281 3.578125 -3.53125 C 3.578125 -3.8125 3.429688 -3.953125 3.140625 -3.953125 C 2.765625 -3.953125 2.21875 -3.625 1.5 -2.96875 C 1.25 -2.75 0.992188 -2.476562 0.734375 -2.15625 Z M 0.734375 -2.15625 "/></g></g></g><g fill="#000000" fill-opacity="1"><g transform="translate(82.383412, 28.409388)"><g><path d="M 2.3125 -1.640625 C 1.320312 -0.535156 0.535156 0.015625 -0.046875 0.015625 C -0.554688 0.015625 -0.8125 -0.25 -0.8125 -0.78125 C -0.8125 -1.394531 -0.5625 -1.988281 -0.0625 -2.5625 C 0.84375 -3.613281 1.800781 -4.140625 2.8125 -4.140625 C 3.113281 -4.140625 3.335938 -4.046875 3.484375 -3.859375 C 3.523438 -3.796875 3.546875 -3.738281 3.546875 -3.6875 C 3.546875 -3.632812 3.546875 -3.601562 3.546875 -3.59375 C 3.546875 -3.582031 3.546875 -3.566406 3.546875 -3.546875 L 6.53125 -7.84375 L 7.8125 -9.640625 C 7.957031 -9.578125 8.09375 -9.546875 8.21875 -9.546875 C 8.351562 -9.546875 8.472656 -9.550781 8.578125 -9.5625 L 2.828125 -1.515625 C 2.597656 -1.203125 2.421875 -0.953125 2.296875 -0.765625 C 2.179688 -0.578125 2.125 -0.429688 2.125 -0.328125 C 2.125 -0.222656 2.175781 -0.171875 2.28125 -0.171875 C 2.664062 -0.171875 3.109375 -0.351562 3.609375 -0.71875 C 4.066406 -1.039062 4.5625 -1.535156 5.09375 -2.203125 C 5.195312 -2.328125 5.269531 -2.410156 5.3125 -2.453125 L 5.4375 -2.34375 C 5.394531 -2.300781 5.316406 -2.210938 5.203125 -2.078125 C 5.097656 -1.953125 4.960938 -1.800781 4.796875 -1.625 C 4.640625 -1.445312 4.457031 -1.257812 4.25 -1.0625 C 4.050781 -0.875 3.832031 -0.703125 3.59375 -0.546875 C 3.082031 -0.171875 2.625 0.015625 2.21875 0.015625 C 1.820312 0.015625 1.625 -0.113281 1.625 -0.375 C 1.632812 -0.632812 1.878906 -1.050781 2.359375 -1.625 Z M 0.5625 -2.15625 C -0.0195312 -1.445312 -0.3125 -0.882812 -0.3125 -0.46875 C -0.3125 -0.269531 -0.207031 -0.171875 0 -0.171875 C 0.351562 -0.171875 0.851562 -0.460938 1.5 -1.046875 L 1.984375 -1.515625 C 2.273438 -1.804688 2.507812 -2.078125 2.6875 -2.328125 L 3.234375 -3.09375 C 3.316406 -3.28125 3.359375 -3.441406 3.359375 -3.578125 C 3.359375 -3.710938 3.3125 -3.804688 3.21875 -3.859375 C 3.125 -3.921875 3.023438 -3.953125 2.921875 -3.953125 C 2.816406 -3.953125 2.679688 -3.914062 2.515625 -3.84375 C 2.359375 -3.769531 2.179688 -3.660156 1.984375 -3.515625 C 1.546875 -3.203125 1.070312 -2.75 0.5625 -2.15625 Z M 0.5625 -2.15625 "/></g></g></g><g fill="#000000" fill-opacity="1"><g transform="translate(87.648703, 28.409388)"><g><path d="M 2.328125 -0.515625 C 2.078125 -0.359375 1.800781 -0.226562 1.5 -0.125 C 1.207031 -0.0195312 0.925781 0.03125 0.65625 0.03125 C 0.394531 0.03125 0.191406 0.00390625 0.046875 -0.046875 C -0.0859375 -0.0976562 -0.195312 -0.171875 -0.28125 -0.265625 C -0.664062 -0.679688 -0.664062 -1.289062 -0.28125 -2.09375 C -0.113281 -2.445312 0.132812 -2.769531 0.46875 -3.0625 C 0.800781 -3.351562 1.097656 -3.570312 1.359375 -3.71875 C 1.847656 -4 2.304688 -4.140625 2.734375 -4.140625 C 3.160156 -4.140625 3.382812 -4.003906 3.40625 -3.734375 C 3.4375 -3.304688 2.914062 -2.835938 1.84375 -2.328125 C 1.445312 -2.140625 0.945312 -1.953125 0.34375 -1.765625 C 0.101562 -1.367188 -0.015625 -1.050781 -0.015625 -0.8125 C -0.015625 -0.570312 0.046875 -0.398438 0.171875 -0.296875 C 0.304688 -0.191406 0.492188 -0.140625 0.734375 -0.140625 C 0.972656 -0.140625 1.234375 -0.191406 1.515625 -0.296875 C 1.804688 -0.398438 2.070312 -0.53125 2.3125 -0.6875 C 2.5625 -0.851562 2.785156 -1.03125 2.984375 -1.21875 C 3.191406 -1.40625 3.375 -1.585938 3.53125 -1.765625 C 3.6875 -1.941406 3.8125 -2.09375 3.90625 -2.21875 C 4.007812 -2.34375 4.078125 -2.421875 4.109375 -2.453125 L 4.234375 -2.34375 C 4.179688 -2.300781 4.101562 -2.210938 4 -2.078125 C 3.894531 -1.941406 3.757812 -1.785156 3.59375 -1.609375 C 3.4375 -1.429688 3.25 -1.242188 3.03125 -1.046875 C 2.820312 -0.859375 2.585938 -0.679688 2.328125 -0.515625 Z M 0.484375 -1.96875 C 1.703125 -2.394531 2.484375 -2.820312 2.828125 -3.25 C 2.953125 -3.382812 3.015625 -3.519531 3.015625 -3.65625 C 3.015625 -3.882812 2.90625 -4 2.6875 -4 C 2.320312 -4 1.863281 -3.671875 1.3125 -3.015625 C 0.914062 -2.566406 0.640625 -2.21875 0.484375 -1.96875 Z M 0.484375 -1.96875 "/></g></g></g><g fill="#000000" fill-opacity="1"><g transform="translate(39.739493, 46.281188)"><g><path d="M 0.414062 0 L 0.796875 0 L 0.796875 -1.246094 L 1.554688 -1.246094 L 2.589844 0 L 3.066406 0 L 1.992188 -1.277344 C 2.441406 -1.359375 2.839844 -1.621094 2.839844 -2.207031 C 2.839844 -2.929688 2.222656 -3.164062 1.65625 -3.164062 L 0.414062 -3.164062 Z M 0.796875 -1.609375 L 0.796875 -2.800781 L 1.671875 -2.800781 C 2.050781 -2.800781 2.453125 -2.679688 2.453125 -2.207031 C 2.453125 -1.734375 2.050781 -1.609375 1.671875 -1.609375 Z M 0.796875 -1.609375 "/></g></g></g><g fill="#000000" fill-opacity="1"><g transform="translate(43.785233, 46.281188)"><g><path d="M 0.414062 0 L 2.578125 0 L 2.578125 -0.363281 L 0.796875 -0.363281 L 0.796875 -1.414062 L 2.414062 -1.414062 L 2.414062 -1.777344 L 0.796875 -1.777344 L 0.796875 -2.800781 L 2.550781 -2.800781 L 2.550781 -3.164062 L 0.414062 -3.164062 Z M 0.414062 0 "/></g></g></g><g fill="#000000" fill-opacity="1"><g transform="translate(47.491942, 46.281188)"><g><path d="M 1.863281 0.0546875 C 2.203125 0.0546875 2.519531 -0.0234375 2.78125 -0.160156 L 2.78125 -0.539062 C 2.5625 -0.382812 2.269531 -0.308594 1.945312 -0.308594 C 1.289062 -0.308594 0.582031 -0.714844 0.585938 -1.558594 C 0.59375 -2.464844 1.273438 -2.855469 1.929688 -2.855469 C 2.230469 -2.855469 2.527344 -2.78125 2.757812 -2.625 L 2.757812 -3.007812 C 2.492188 -3.144531 2.183594 -3.21875 1.867188 -3.21875 C 1.042969 -3.21875 0.207031 -2.65625 0.203125 -1.558594 C 0.199219 -0.507812 1.066406 0.0546875 1.863281 0.0546875 Z M 1.863281 0.0546875 "/></g></g></g><g fill="#000000" fill-opacity="1"><g transform="translate(51.347828, 46.281188)"><g><path d="M 0.414062 0 L 0.796875 0 L 0.796875 -3.164062 L 0.414062 -3.164062 Z M 0.414062 0 "/></g></g></g><g fill="#000000" fill-opacity="1"><g transform="translate(53.463361, 46.281188)"><g><path d="M 0.414062 0 L 0.796875 0 L 0.796875 -1.121094 L 1.496094 -1.121094 C 2.230469 -1.121094 2.839844 -1.351562 2.839844 -2.144531 C 2.839844 -2.933594 2.230469 -3.164062 1.496094 -3.164062 L 0.414062 -3.164062 Z M 0.796875 -1.484375 L 0.796875 -2.800781 L 1.515625 -2.800781 C 2.035156 -2.800781 2.453125 -2.679688 2.453125 -2.144531 C 2.453125 -1.609375 2.03125 -1.484375 1.515625 -1.484375 Z M 0.796875 -1.484375 "/></g></g></g><g fill="#000000" fill-opacity="1"><g transform="translate(57.355408, 46.281188)"><g><path d="M 0.414062 0 L 2.578125 0 L 2.578125 -0.363281 L 0.796875 -0.363281 L 0.796875 -1.414062 L 2.414062 -1.414062 L 2.414062 -1.777344 L 0.796875 -1.777344 L 0.796875 -2.800781 L 2.550781 -2.800781 L 2.550781 -3.164062 L 0.414062 -3.164062 Z M 0.414062 0 "/></g></g></g><g fill="#000000" fill-opacity="1"><g transform="translate(61.062118, 46.281188)"><g/></g></g><g fill="#000000" fill-opacity="1"><g transform="translate(63.091767, 46.281188)"><g><path d="M 0.414062 0 L 1.75 0 C 2.210938 0 2.914062 -0.148438 2.914062 -0.867188 C 2.914062 -1.382812 2.546875 -1.589844 2.28125 -1.664062 C 2.53125 -1.734375 2.789062 -1.960938 2.789062 -2.363281 C 2.789062 -2.898438 2.359375 -3.164062 1.714844 -3.164062 L 0.414062 -3.164062 Z M 0.796875 -1.816406 L 0.796875 -2.800781 L 1.679688 -2.800781 C 2.128906 -2.800781 2.40625 -2.683594 2.40625 -2.308594 C 2.40625 -1.949219 2.117188 -1.816406 1.785156 -1.816406 Z M 0.796875 -0.363281 L 0.796875 -1.457031 L 1.777344 -1.457031 C 2.078125 -1.457031 2.53125 -1.402344 2.53125 -0.910156 C 2.53125 -0.390625 2.070312 -0.363281 1.671875 -0.363281 Z M 0.796875 -0.363281 "/></g></g></g><g fill="#000000" fill-opacity="1"><g transform="translate(67.119424, 46.281188)"><g><path d="M 0.414062 0 L 2.550781 0 L 2.550781 -0.363281 L 0.796875 -0.363281 L 0.796875 -3.164062 L 0.414062 -3.164062 Z M 0.414062 0 "/></g></g></g><g fill="#000000" fill-opacity="1"><g transform="translate(70.640799, 46.281188)"><g><path d="M 1.859375 0.0546875 C 2.964844 0.0546875 3.511719 -0.765625 3.511719 -1.582031 C 3.511719 -2.398438 2.964844 -3.21875 1.859375 -3.21875 C 0.75 -3.21875 0.203125 -2.398438 0.203125 -1.582031 C 0.203125 -0.765625 0.75 0.0546875 1.859375 0.0546875 Z M 1.859375 -0.308594 C 1 -0.308594 0.585938 -0.929688 0.585938 -1.582031 C 0.585938 -2.234375 1 -2.855469 1.859375 -2.855469 C 2.714844 -2.855469 3.128906 -2.234375 3.128906 -1.582031 C 3.128906 -0.929688 2.714844 -0.308594 1.859375 -0.308594 Z M 1.859375 -0.308594 "/></g></g></g><g fill="#000000" fill-opacity="1"><g transform="translate(75.260631, 46.281188)"><g><path d="M 1.925781 0.0546875 C 2.269531 0.0546875 2.621094 -0.0234375 2.914062 -0.160156 L 2.914062 -1.679688 L 2.535156 -1.679688 L 2.535156 -0.425781 C 2.378906 -0.347656 2.164062 -0.308594 1.953125 -0.308594 C 1.289062 -0.308594 0.59375 -0.628906 0.59375 -1.582031 C 0.59375 -2.484375 1.277344 -2.855469 1.945312 -2.855469 C 2.273438 -2.855469 2.59375 -2.78125 2.839844 -2.625 L 2.839844 -3.007812 C 2.558594 -3.144531 2.222656 -3.21875 1.890625 -3.21875 C 1.046875 -3.21875 0.207031 -2.671875 0.207031 -1.582031 C 0.207031 -0.390625 1.058594 0.0546875 1.925781 0.0546875 Z M 1.925781 0.0546875 "/></g></g></g></svg>